<?xml version="1.0" encoding="UTF-8"?>
<svg id="Capa_1" xmlns="http://www.w3.org/2000/svg" version="1.1" viewBox="0 0 1727.08 443.4">
  <!-- Generator: Adobe Illustrator 30.2.1, SVG Export Plug-In . SVG Version: 2.1.1 Build 1)  -->
  <g>
    <path d="M15.23,307.13c6.79,13.89,15.65,26.59,26.19,37.68,15.05-25.46,45.3-78.85,66.15-130.43-32.06,45.08-87.17,88.7-92.34,92.75Z"/>
    <path d="M130.35,100.08c4.8,5.02,5.51,5.65,8.65,9.5,8.09,23.92-5.31,82.26-20.66,139.64,28.82-48.85,65.3-96.28,89.46-101.3l35.99,24.43s-56.17,28.5-117.29,121.91l154.4-128.11s.2,0,.54.03c-25.98-45.29-74.82-75.81-130.78-75.81-11.18,0-17.11.22-27.59,2.53,3.24,3.28,3.95,4.01,7.27,7.17h0Z"/>
    <path d="M114.47,94.77C48.74,110.98,0,170.32,0,241.05c0,10.53,1.08,20.81,3.14,30.73,100.33-63.86,110.4-154.69,111.33-177.01Z"/>
    <g>
      <path d="M298.91,214.64l1.01,6.4c-.29-2.15-.64-4.28-1.01-6.4Z"/>
      <path d="M300.23,223.78c-2.49.9-150.72,54.55-213.47,153.72-.18-.05-.35-.13-.53-.19,19.55,9.27,41.37,14.53,64.44,14.53,83.21,0,150.67-67.46,150.67-150.67,0-5.9-.44-11.68-1.1-17.4h-.01Z"/>
      <path d="M74.02,370.79s-.06.05-.09.07c.24.14.49.26.73.4-.35-.25-.57-.41-.64-.47Z"/>
    </g>
  </g>
  <g>
    <path d="M489.01,131.2c9.02,2.92,16.85,7.16,23.5,12.71l6.31-15.05h50.46v214.64c0,32.55-10,57.34-30.01,74.36s-47.23,25.53-81.68,25.53c-17.5,0-34.86-2-52.08-6-17.23-4-32.55-9.8-45.98-17.39l19.33-40.69c9.77,5.29,21.7,9.8,35.81,13.53s27.13,5.59,39.06,5.59c16.95,0,30.01-4.37,39.16-13.12,9.16-8.75,13.73-21.6,13.73-38.55v-22.99c-16.68,15.87-36.35,23.81-59,23.81-30.25,0-53.78-9.29-70.6-27.87s-25.23-44.69-25.23-78.33c0-35.81,9.56-63.85,28.69-84.13,19.12-20.27,45.64-30.42,79.55-30.42,10.31,0,19.97,1.46,28.99,4.38h0ZM429.6,186.54c-9.7,12.14-14.55,29.74-14.55,52.8,0,20.62,3.9,36.45,11.7,47.5,7.8,11.06,19.02,16.58,33.67,16.58,11.12,0,20.85-3.19,29.19-9.56s14-14.99,16.99-25.84v-90.54c-10.58-6.1-22.24-9.16-34.99-9.16-18.31,0-32.32,6.07-42.01,18.21h0Z"/>
    <path d="M727.5,125.4c5.29,0,9.79.31,13.53.92,3.73.61,8.51,1.73,14.34,3.36l-7.12,54.52c-11.67-4.2-21.97-6.24-30.93-6.1-9.77,0-18.04,1.73-24.82,5.19s-12.48,8.92-17.09,16.38v147.5h-62.66v-218.3h49.64l7.53,30.31c13.7-22.51,32.89-33.77,57.58-33.77h0Z"/>
    <path d="M939.29,147.38c16.41,15.19,24.62,37.23,24.62,66.12v133.67h-51.68l-7.12-25.84c-8.95,9.5-19.02,16.72-30.21,21.67s-23.16,7.42-35.91,7.42c-22.52,0-40.38-5.83-53.61-17.49-13.22-11.66-19.84-27.33-19.84-47,0-22.78,9.59-40.55,28.79-53.3,19.19-12.75,46.01-19.13,80.46-19.13h26.65v-5.49c-.82-25.23-15.13-37.84-42.93-37.84-9.5,0-20.48,1.39-32.96,4.17-12.48,2.78-23.74,6.34-33.77,10.68l-13.22-42.11c14.38-5.83,29.5-10.34,45.37-13.53s30.72-4.78,44.55-4.78c30.79,0,54.39,7.6,70.8,22.79h.01ZM838.69,256.83c-9.84,6.1-14.75,14.58-14.75,25.43,0,8.95,2.71,15.77,8.14,20.45,5.43,4.68,13.09,7.02,22.99,7.02,8.95,0,17.53-1.96,25.74-5.9,8.2-3.93,15.09-9.22,20.65-15.87v-40.28h-21.36c-17.77,0-31.57,3.05-41.4,9.16h-.01Z"/>
    <path d="M1019.22,105.47c0-23.06,6.85-41.3,20.55-54.73,13.7-13.43,32.48-20.14,56.36-20.14,10.31,0,20.04,1.02,29.2,3.05,9.16,2.03,19.7,5.56,31.63,10.58l-15.26,35.4c-12.48-4.2-22.92-6.31-31.33-6.31-9.5,0-16.85,2.71-22.07,8.14s-7.83,13.29-7.83,23.6v23.8h52.49v43.74h-52.49v155.84c0,28.62-7.26,56.08-21.77,82.4h-39.47v-238.24h-36.01v-43.74h36.01v-23.4h-.01Z"/>
    <path d="M1164.08,131.3h62.46v215.86h-62.46v-215.86Z"/>
    <path d="M1431.39,128.86v37.43l-101.32,134.68h104.98v46.18h-174.56v-38.66l101.32-133.46h-96.64v-46.18h166.22Z"/>
    <path d="M1577.46,305.46c10.85,0,21.77-1.25,32.76-3.76s23.12-6.54,36.42-12.11l15.06,38.86c-33.1,15.33-63.68,22.92-91.76,22.79-34.45,0-61.51-10.04-81.17-30.11-19.67-20.07-29.5-47.94-29.5-83.62s9.63-63.24,28.89-83.11,46.25-29.81,80.97-29.81c65.24,0,97.86,36.96,97.86,110.88v14.24h-146.89c3.26,37.17,22.38,55.75,57.37,55.75h-.01ZM1569.53,167.93c-13.84,0-24.72,3.76-32.66,11.29-7.93,7.53-13.12,18.96-15.56,34.28h88.3c-1.77-30.38-15.13-45.57-40.08-45.57Z"/>
    <path d="M1492.13,78.63l160.4,27.55L1727.08,0s-88.11,94-234.95,78.63Z"/>
    <rect x="1164.08" y="61.74" width="62.46" height="42.18"/>
  </g>
</svg>